<svg width="66" height="66" viewBox="0 0 66 66" fill="none" xmlns="http://www.w3.org/2000/svg">
<rect width="66" height="66" rx="1" fill="white"/>
<path fill-rule="evenodd" clip-rule="evenodd" d="M1 1H65V65H1V1ZM63 3H32C32 3 48.5 5 55.5 12C62.5 19 63 32 63 32V3ZM11.7897 4.54547V14H9.64771L6.23151 9.03271H6.17609V14H3.60938V4.54547H5.78833L9.14911 9.49432H9.22296V4.54547H11.7897ZM16.4341 62V52.5455H20.5151C21.2169 52.5455 21.8308 52.6732 22.3571 52.9286C22.8834 53.1841 23.2927 53.5519 23.5851 54.032C23.8774 54.5121 24.0236 55.0876 24.0236 55.7585C24.0236 56.4356 23.8729 57.0065 23.5712 57.4713C23.2926 57.905 22.908 58.2396 22.4175 58.4749L24.3376 62H21.5492L19.8892 58.8793H19.0009V62H16.4341ZM19.9058 56.8849H19.0009V54.5952H19.9058C20.2073 54.5952 20.4644 54.6367 20.6767 54.7198C20.8922 54.7999 21.0568 54.926 21.1707 55.0984C21.2876 55.2676 21.3461 55.4877 21.3461 55.7585C21.3461 56.0263 21.2876 56.2433 21.1707 56.4095C21.0568 56.5757 20.8922 56.6972 20.6767 56.7742C20.4644 56.848 20.2073 56.8849 19.9058 56.8849ZM29.0178 52.5455V62H35.8132V59.9318H31.5845V58.3068H35.4808V56.2386H31.5845V54.6136H35.8317V52.5455H29.0178ZM49.1851 52.5455V62H47.043L43.6268 57.0327H43.5714V62H41.0046V52.5455H43.1837L46.5444 57.4943H46.6183V52.5455H49.1851ZM54.2992 62H57.937C58.8972 62 59.7297 61.8123 60.4345 61.4368C61.1393 61.0582 61.684 60.5166 62.0687 59.8118C62.4534 59.1039 62.6458 58.2576 62.6458 57.2728C62.6458 56.2879 62.4519 55.4431 62.0641 54.7383C61.6794 54.0305 61.1316 53.4888 60.4207 53.1133C59.7128 52.7347 58.8726 52.5455 57.9 52.5455H54.2992V62ZM57.8447 59.821H56.866V54.7244H57.7708C58.2632 54.7244 58.6787 54.7999 59.0172 54.9507C59.3588 55.1014 59.6174 55.3615 59.7928 55.7308C59.9713 56.1002 60.0605 56.6141 60.0605 57.2728C60.0605 57.9313 59.9728 58.4453 59.7974 58.8146C59.6251 59.184 59.3727 59.444 59.0403 59.5948C58.711 59.7457 58.3124 59.821 57.8447 59.821ZM3.60938 20.5455V30H10.4048V27.9318H6.17609V26.3068H10.0724V24.2386H6.17609V22.6136H10.4233V20.5455H3.60938ZM6.36078 36.5455L7.91193 39.2969H7.98578L9.55536 36.5455H12.4176L9.59229 41.2728L12.5284 46H9.59229L7.98578 43.1932H7.91193L6.30536 46H3.38776L6.28693 41.2728L3.4801 36.5455H6.36078ZM3.35083 52.5455V54.6136H6.19458V62H8.72443V54.6136H11.5682V52.5455H3.35083Z" fill="black"/>
</svg>
