<svg width="71" height="71" viewBox="0 0 71 71" fill="none" xmlns="http://www.w3.org/2000/svg">
<circle cx="35.5" cy="35.5" r="35.5" fill="black"/>
<path fill-rule="evenodd" clip-rule="evenodd" d="M33.25 17C33.1119 17 33 17.1119 33 17.25L33 21.25C33 21.3881 33.1119 21.5 33.25 21.5H43.2426C43.3807 21.5 43.4926 21.6119 43.4926 21.75V29.3238C43.4926 29.3741 43.4774 29.4233 43.449 29.4648L37.4954 38.1775C37.3964 38.3223 37.1831 38.3229 37.0834 38.1787L22.508 17.1078C22.4614 17.0403 22.3845 17 22.3024 17H18.25C18.1119 17 18 17.1119 18 17.25V54.75C18 54.8881 18.1119 55 18.25 55H22.3313C22.4694 55 22.5813 54.8881 22.5813 54.75V25.4064C22.5813 25.2726 22.6898 25.1641 22.8236 25.1641V25.1641C22.9032 25.1641 22.9777 25.2032 23.023 25.2686L34.6368 42.0766C34.6956 42.1617 34.6959 42.2743 34.6375 42.3597L26.2672 54.609C26.1538 54.7749 26.2727 55 26.4736 55H31.0243C31.108 55 31.1866 54.9574 31.2329 54.8878C33.6935 51.1894 35.4664 48.5024 37.0227 46.1341C37.1201 45.9859 37.3364 45.9836 37.4372 46.1295L43.487 54.8849C43.4955 54.8972 43.5 54.9117 43.5 54.9266V54.9266C43.5 54.9672 43.5328 55 43.5734 55H47.75C47.8881 55 48 54.8881 48 54.75L48 21.75C48 21.6119 48.1119 21.5 48.25 21.5H57.75C57.8881 21.5 58 21.3881 58 21.25V17.25C58 17.1119 57.8881 17 57.75 17H33.25ZM43.2502 46.9102C43.1706 46.9102 43.0961 46.8711 43.0509 46.8057L39.8266 42.1445C39.7687 42.0608 39.7673 41.9504 39.8232 41.8652C40.81 40.3606 41.8328 38.803 43.034 36.9829C43.1706 36.776 43.4926 36.8725 43.4926 37.1203V46.6678C43.4926 46.8016 43.3841 46.9102 43.2502 46.9102V46.9102Z" fill="white"/>
</svg>
